<svg id="Capa_1" enable-background="new 0 0 512 512" height="512" viewBox="0 0 512 512" width="512" xmlns="http://www.w3.org/2000/svg"><g><path d="m446.128 412.031h-434.87c-6.218 0-11.258-5.041-11.258-11.259v-322.212l21.821-12.362h410.188l25.377 12.362v322.213c0 6.217-5.04 11.258-11.258 11.258z" fill="#f4fbff"/><path d="m431.481 68.258v332.515c0 6.218-5.04 11.258-11.258 11.258h25.905c6.218 0 11.258-5.04 11.258-11.258v-322.213z" fill="#dfeaef"/><path d="m446.128 21.653h-434.87c-6.218 0-11.258 5.04-11.258 11.258v45.649h457.386v-45.649c0-6.218-5.04-11.258-11.258-11.258z" fill="#738b95"/><path d="m446.128 21.653h-25.905c6.218 0 11.258 5.04 11.258 11.258v45.649h25.905v-45.649c0-6.218-5.04-11.258-11.258-11.258z" fill="#617881"/><path d="m435.381 489.252 74.255-53.949c1.485-1.079 2.365-2.804 2.365-4.641v-105.98c0-3.168-2.568-5.736-5.736-5.736h-148.51c-3.168 0-5.736 2.568-5.736 5.736v105.98c0 1.836.879 3.561 2.365 4.641l74.255 53.949c2.009 1.461 4.731 1.461 6.742 0z" fill="#70b9c6"/><path d="m506.264 318.946h-25.057v99.75c0 1.836-.879 3.561-2.365 4.641l-70.465 51.195 20.26 14.72c2.01 1.461 4.733 1.461 6.743 0l74.255-53.949c1.485-1.079 2.365-2.804 2.365-4.641v-105.98c0-3.168-2.568-5.736-5.736-5.736z" fill="#61aab7"/><g><g><path d="m449.148 409.051h-34.278c-4.268 0-7.726-3.459-7.726-7.726v-38.898c0-13.71 11.155-24.865 24.865-24.865s24.865 11.155 24.865 24.865v38.898c0 4.267-3.459 7.726-7.726 7.726zm-26.552-15.453h18.825v-31.172c0-5.19-4.222-9.412-9.412-9.412s-9.412 4.222-9.412 9.412v31.172z" fill="#617881"/></g><path d="m460.619 436.515h-57.22c-2.344 0-4.244-1.9-4.244-4.244v-43.699c0-2.344 1.9-4.244 4.244-4.244h57.22c2.344 0 4.244 1.9 4.244 4.244v43.699c0 2.344-1.9 4.244-4.244 4.244z" fill="#f6e781"/><path d="m460.619 384.328h-20.599c2.344 0 4.244 1.9 4.244 4.244v43.699c0 2.344-1.9 4.244-4.244 4.244h20.599c2.344 0 4.244-1.9 4.244-4.244v-43.699c0-2.344-1.9-4.244-4.244-4.244z" fill="#f6e266"/></g><g><path d="m90.089 57.832h-56.27c-4.267 0-7.726-3.459-7.726-7.726s3.459-7.726 7.726-7.726h56.27c4.267 0 7.726 3.459 7.726 7.726s-3.459 7.726-7.726 7.726z" fill="#617881"/></g><path d="m359.307 219.855h-261.228c-4.875 0-8.828-3.952-8.828-8.828v-85.384c0-4.875 3.952-8.828 8.828-8.828h261.228c4.875 0 8.828 3.952 8.828 8.828v85.384c0 4.876-3.952 8.828-8.828 8.828z" fill="#738b95"/><path d="m359.307 116.816h-25.237c4.875 0 8.828 3.952 8.828 8.828v85.384c0 4.875-3.952 8.828-8.828 8.828h25.237c4.875 0 8.828-3.952 8.828-8.828v-85.384c0-4.876-3.952-8.828-8.828-8.828z" fill="#617881"/><g><g><g><path d="m156.271 196.17c-4.267 0-7.726-3.459-7.726-7.726v-40.217c0-4.267 3.459-7.726 7.726-7.726s7.726 3.459 7.726 7.726v40.217c.001 4.267-3.459 7.726-7.726 7.726z" fill="#617881"/></g><g><path d="m142.053 190.281c-1.977 0-3.955-.755-5.463-2.263-3.018-3.017-3.018-7.909 0-10.927l28.437-28.438c3.017-3.017 7.909-3.017 10.927 0s3.018 7.909 0 10.927l-28.437 28.438c-1.509 1.508-3.487 2.263-5.464 2.263z" fill="#617881"/></g><g><path d="m176.38 176.062h-40.217c-4.267 0-7.726-3.459-7.726-7.726s3.459-7.726 7.726-7.726h40.217c4.267 0 7.726 3.459 7.726 7.726s-3.459 7.726-7.726 7.726z" fill="#617881"/></g><g><path d="m170.49 190.281c-1.977 0-3.955-.754-5.463-2.263l-28.437-28.438c-3.018-3.017-3.018-7.909 0-10.927s7.91-3.018 10.927 0l28.437 28.438c3.018 3.017 3.018 7.909 0 10.927-1.509 1.508-3.487 2.263-5.464 2.263z" fill="#617881"/></g></g><g><g><path d="m228.693 196.17c-4.267 0-7.726-3.459-7.726-7.726v-40.217c0-4.267 3.459-7.726 7.726-7.726s7.726 3.459 7.726 7.726v40.217c0 4.267-3.459 7.726-7.726 7.726z" fill="#617881"/></g><g><path d="m214.474 190.281c-1.977 0-3.955-.755-5.463-2.263-3.018-3.017-3.018-7.909 0-10.927l28.437-28.438c3.017-3.017 7.909-3.017 10.927 0s3.018 7.909 0 10.927l-28.437 28.438c-1.509 1.508-3.486 2.263-5.464 2.263z" fill="#617881"/></g><g><path d="m248.801 176.062h-40.217c-4.267 0-7.726-3.459-7.726-7.726s3.459-7.726 7.726-7.726h40.217c4.267 0 7.726 3.459 7.726 7.726s-3.458 7.726-7.726 7.726z" fill="#617881"/></g><g><path d="m242.912 190.281c-1.977 0-3.955-.754-5.463-2.263l-28.437-28.438c-3.018-3.017-3.018-7.909 0-10.927s7.91-3.018 10.927 0l28.437 28.438c3.018 3.017 3.018 7.909 0 10.927-1.51 1.508-3.488 2.263-5.464 2.263z" fill="#617881"/></g></g><g><g><path d="m301.114 196.17c-4.268 0-7.726-3.459-7.726-7.726v-40.217c0-4.267 3.459-7.726 7.726-7.726s7.726 3.459 7.726 7.726v40.217c.001 4.267-3.458 7.726-7.726 7.726z" fill="#617881"/></g><g><path d="m286.896 190.281c-1.977 0-3.955-.755-5.464-2.263-3.017-3.017-3.017-7.909 0-10.927l28.438-28.438c3.018-3.017 7.909-3.017 10.928 0 3.017 3.017 3.017 7.909 0 10.927l-28.438 28.438c-1.509 1.508-3.487 2.263-5.464 2.263z" fill="#617881"/></g><g><path d="m321.223 176.062h-40.217c-4.268 0-7.726-3.459-7.726-7.726s3.459-7.726 7.726-7.726h40.217c4.268 0 7.726 3.459 7.726 7.726s-3.458 7.726-7.726 7.726z" fill="#617881"/></g><g><path d="m315.334 190.281c-1.977 0-3.955-.755-5.464-2.263l-28.438-28.438c-3.017-3.017-3.017-7.909 0-10.927 3.018-3.017 7.909-3.017 10.928 0l28.438 28.438c3.017 3.017 3.017 7.909 0 10.927-1.51 1.508-3.487 2.263-5.464 2.263z" fill="#617881"/></g></g></g><path d="m276.746 324.383h-96.106c-5.541 0-10.034-4.492-10.034-10.034v-41.246c0-5.541 4.492-10.034 10.034-10.034h96.107c5.541 0 10.034 4.492 10.034 10.034v41.246c-.001 5.541-4.493 10.034-10.035 10.034z" fill="#80e29d"/><path d="m276.746 263.069h-23.22c5.541 0 10.034 4.492 10.034 10.034v41.246c0 5.541-4.492 10.034-10.034 10.034h23.22c5.541 0 10.034-4.492 10.034-10.034v-41.246c0-5.542-4.492-10.034-10.034-10.034z" fill="#78d090"/></g></svg>