<svg height="512" viewBox="0 0 64 64" width="512" xmlns="http://www.w3.org/2000/svg"><g id="Twotone"><g id="Color_copy_2" data-name="Color copy 2"><rect fill="#a8dba8" height="58" rx="4" width="36" x="11" y="3"/><path d="m23 7a4 4 0 0 1 -4 4h-4v46h28v-50z" fill="#fff"/><path d="m23 7a4 4 0 0 1 -4 4h-4v46h28v-50zm17 42h-8a14 14 0 0 1 -14-14v-18a3 3 0 0 1 3-3h1a4 4 0 0 0 4-4h11a3 3 0 0 1 3 3z" fill="#cff09e"/><circle cx="21" cy="18" fill="#a8dba8" r="2"/><circle cx="21" cy="26" fill="#a8dba8" r="2"/><circle cx="21" cy="34" fill="#a8dba8" r="2"/><rect fill="#79bd9a" height="42" rx="6" width="32" x="27" y="11"/><g fill="#fff"><rect height="12" rx="6" width="12" x="31" y="25"/><rect height="12" rx="6" width="12" x="31" y="37"/><rect height="12" rx="6" width="12" x="43" y="25"/><rect height="12" rx="6" width="12" x="43" y="37"/><path d="m32 16h22v5h-22z"/></g><path d="m32 16v5h22v-5zm20 3h-17a1 1 0 0 1 0-2h17a1 1 0 0 1 0 2z" fill="#cff09e"/><path d="m54.47 33.47a6.032 6.032 0 0 1 -5.47 3.53 6 6 0 0 1 -6-6 6.032 6.032 0 0 1 3.53-5.47 6 6 0 0 0 7.94 7.94z" fill="#cff09e"/><path d="m42.47 33.47a6.032 6.032 0 0 1 -5.47 3.53 6 6 0 0 1 -6-6 6.032 6.032 0 0 1 3.53-5.47 6 6 0 0 0 7.94 7.94z" fill="#cff09e"/><path d="m54.47 45.47a6.032 6.032 0 0 1 -5.47 3.53 6 6 0 0 1 -6-6 6.032 6.032 0 0 1 3.53-5.47 6 6 0 0 0 7.94 7.94z" fill="#cff09e"/><path d="m42.47 45.47a6.032 6.032 0 0 1 -5.47 3.53 6 6 0 0 1 -6-6 6.032 6.032 0 0 1 3.53-5.47 6 6 0 0 0 7.94 7.94z" fill="#cff09e"/></g><g id="Stroke_Close_copy_2" fill="#3b8686" data-name="Stroke Close copy 2"><circle cx="15" cy="7" r="1"/><circle cx="19" cy="7" r="1"/><path d="m21 15a3 3 0 1 0 3 3 3 3 0 0 0 -3-3zm0 4a1 1 0 1 1 1-1 1 1 0 0 1 -1 1z"/><path d="m21 23a3 3 0 1 0 3 3 3 3 0 0 0 -3-3zm0 4a1 1 0 1 1 1-1 1 1 0 0 1 -1 1z"/><path d="m21 31a3 3 0 1 0 3 3 3 3 0 0 0 -3-3zm0 4a1 1 0 1 1 1-1 1 1 0 0 1 -1 1z"/><circle cx="21" cy="42" r="1"/><circle cx="21" cy="46" r="1"/><circle cx="21" cy="50" r="1"/><path d="m53 10h-5v-3a5.006 5.006 0 0 0 -5-5h-28a5.006 5.006 0 0 0 -5 5v50a5.006 5.006 0 0 0 5 5h28a5.006 5.006 0 0 0 5-5v-3h5a7.008 7.008 0 0 0 7-7v-30a7.008 7.008 0 0 0 -7-7zm-7 47a3 3 0 0 1 -3 3h-28a3 3 0 0 1 -3-3v-50a3 3 0 0 1 3-3h28a3 3 0 0 1 3 3v3h-2v-3a1 1 0 0 0 -1-1h-20a1 1 0 0 0 -1 1 3 3 0 0 1 -3 3h-4a1 1 0 0 0 -1 1v46a1 1 0 0 0 1 1h28a1 1 0 0 0 1-1v-3h2zm-13-3h9v2h-26v-44h3a5.008 5.008 0 0 0 4.9-4h18.1v2h-9a7.008 7.008 0 0 0 -7 7v30a7.008 7.008 0 0 0 7 7zm25-7a5.006 5.006 0 0 1 -5 5h-20a5.006 5.006 0 0 1 -5-5v-30a5.006 5.006 0 0 1 5-5h20a5.006 5.006 0 0 1 5 5z"/><path d="m56 31a6.993 6.993 0 0 0 -13-3.587 6.993 6.993 0 1 0 -9.587 9.587 6.993 6.993 0 1 0 9.587 9.587 6.993 6.993 0 1 0 9.587-9.587 7 7 0 0 0 3.413-6zm-24 0a5 5 0 1 1 5 5 5.006 5.006 0 0 1 -5-5zm11 3.587a7.036 7.036 0 0 0 2.413 2.413 7.036 7.036 0 0 0 -2.413 2.413 7.036 7.036 0 0 0 -2.413-2.413 7.036 7.036 0 0 0 2.413-2.413zm-6 13.413a5 5 0 1 1 5-5 5.006 5.006 0 0 1 -5 5zm17-5a5 5 0 1 1 -5-5 5.006 5.006 0 0 1 5 5zm-10-12a5 5 0 1 1 5 5 5.006 5.006 0 0 1 -5-5z"/><path d="m39 30h-1v-1a1 1 0 0 0 -2 0v1h-1a1 1 0 0 0 0 2h1v1a1 1 0 0 0 2 0v-1h1a1 1 0 0 0 0-2z"/><path d="m39.121 40.879a1 1 0 0 0 -1.414 0l-.707.707-.707-.707a1 1 0 0 0 -1.414 1.414l.707.707-.707.707a1 1 0 1 0 1.414 1.414l.707-.707.707.707a1 1 0 0 0 1.414-1.414l-.707-.707.707-.707a1 1 0 0 0 0-1.414z"/><path d="m51 30h-4a1 1 0 0 0 0 2h4a1 1 0 0 0 0-2z"/><path d="m47 42h4a1 1 0 0 0 0-2h-4a1 1 0 0 0 0 2z"/><path d="m47 46h4a1 1 0 0 0 0-2h-4a1 1 0 0 0 0 2z"/><path d="m32 22h22a1 1 0 0 0 1-1v-5a1 1 0 0 0 -1-1h-22a1 1 0 0 0 -1 1v5a1 1 0 0 0 1 1zm1-5h20v3h-20z"/></g></g></svg>