<svg height="464pt" viewBox="-40 0 464 464" width="464pt" xmlns="http://www.w3.org/2000/svg"><path d="m320 408h-256v-392c0-8.800781 7.199219-16 16-16h288c8.800781 0 16 7.199219 16 16v416c0 17.601562-14.398438 32-32 32s-32-14.398438-32-32zm0 0" fill="#e9e9e9"/><g fill="#2f5989"><path d="m176 32h96v16h-96zm0 0"/><path d="m96 72h32v16h-32zm0 0"/><path d="m96 104h32v16h-32zm0 0"/><path d="m96 136h32v16h-32zm0 0"/><path d="m96 168h32v16h-32zm0 0"/><path d="m96 200h32v16h-32zm0 0"/><path d="m152 72h56v16h-56zm0 0"/><path d="m152 104h56v16h-56zm0 0"/><path d="m152 136h56v16h-56zm0 0"/><path d="m152 168h56v16h-56zm0 0"/><path d="m152 200h56v16h-56zm0 0"/><path d="m232 72h120v16h-120zm0 0"/><path d="m232 104h120v16h-120zm0 0"/><path d="m232 136h120v16h-120zm0 0"/><path d="m232 168h120v16h-120zm0 0"/><path d="m232 200h120v16h-120zm0 0"/><path d="m96 232h32v16h-32zm0 0"/><path d="m96 264h32v16h-32zm0 0"/><path d="m96 296h32v16h-32zm0 0"/><path d="m152 232h56v16h-56zm0 0"/><path d="m152 264h56v16h-56zm0 0"/><path d="m152 296h56v16h-56zm0 0"/><path d="m232 232h120v16h-120zm0 0"/><path d="m232 264h120v16h-120zm0 0"/><path d="m96 328h32v16h-32zm0 0"/><path d="m96 360h32v16h-32zm0 0"/><path d="m152 328h56v16h-56zm0 0"/><path d="m152 360h56v16h-56zm0 0"/><path d="m232 296h120v16h-120zm0 0"/><path d="m232 328h120v16h-120zm0 0"/><path d="m232 360h120v16h-120zm0 0"/></g><path d="m352 464h-320c-17.601562 0-32-14.398438-32-32v-24h320v24c0 17.601562 14.398438 32 32 32zm0 0" fill="#b4b4b5"/></svg>